
[img]http://img192.imageshack.us/img192/5950/casinojackposter01.jpg[/img]
[code]
Thx Hive

CM8 Doing It Right The First Time 

In US Cinemas on 17.December
no fake

Source: DVD-R no Clue about origin
       its not a DVDSCR, has no watermarks no B/W scenes, no property msgs and 5.1 eng audio. like a retail dvd

Video: 720x400 @bitrate 1800 2pass
Audio: English 5.1 @448
Sample: yes included

Encode: sharpness,brightness,chroma,denoise

Enjoy

 
http://www.imdb.com/title/tt1194417/


General
Complete name                    : Casino.Jack.2010.DVDRip.XVID.AC3.HQ.Hive-CM8.avi
Format                           : AVI
Format/Info                      : Audio Video Interleave
File size                        : 1.63 GiB
Duration                         : 1h 43mn
Overall bit rate                 : 2 256 Kbps
Writing application              : Nandub v1.0rc2
Writing library                  : Nandub build 1853/release

Video
ID                               : 0
Format                           : MPEG-4 Visual
Format profile                   : Advanced Simple@L5
Format settings, BVOP            : Yes
Format settings, QPel            : Yes
Format settings, GMC             : No warppoints
Format settings, Matrix          : Default (H.263)
Muxing mode                      : Packed bitstream
Codec ID                         : XVID
Codec ID/Hint                    : XviD
Duration                         : 1h 43mn
Bit rate                         : 1 798 Kbps
Width                            : 720 pixels
Height                           : 400 pixels
Display aspect ratio             : 16:9
Frame rate                       : 25.000 fps
Color space                      : YUV
Chroma subsampling               : 4:2:0
Bit depth                        : 8 bits
Scan type                        : Progressive
Bits/(Pixel*Frame)               : 0.250
Stream size                      : 1.30 GiB (80%)
Writing library                  : XviD 1.2.1 (UTC 2008-12-04)

Audio
ID                               : 1
Format                           : AC-3
Format/Info                      : Audio Coding 3
Mode extension                   : CM (complete main)
Codec ID                         : 2000
Duration                         : 1h 43mn
Bit rate mode                    : Constant
Bit rate                         : 448 Kbps
Channel(s)                       : 6 channels
Channel positions                : Front: L C R, Side: L R, LFE
Sampling rate                    : 48.0 KHz
Bit depth                        : 16 bits
Stream size                      : 332 MiB (20%)
Alignment                        : Split accross interleaves
Interleave, duration             : 40 ms (1.00 video frame)
Interleave, preload duration     : 500 ms

Cast:
Kevin Spacey   - Jack Abramoff
Kelly Preston - Pam Abramoff
Barry Pepper - Michael Scanlon
Rachelle Lefevre - Emily
Jon Lovitz - Adam Kidan
Eric Schweig - Chief Poncho
Yannick Bisson - Oscar Carillo
Maury Chaykin - Big Tony
Christian Campbell - Ralph Reed 

Plot:
A hot shot Washington DC lobbyist and his protégé go down hard 
as their schemes to peddle influence lead to corruption and murder. 

Greetz

iNK,LUSi,,MAGNET,CLASSiFiED,THC,LEGi0N,IMAGiNE,ViSiON,WBZ,FLAWL3SS
Rapeseed,D2U,SAFC,goldadvance,MEMORY100,KaN1vE,Unevano,Pinnz,Wayne,Mr Hive
and all P2P groups 
Great Work Guys
[/code]
Screens:
[img]http://img822.imageshack.us/img822/8805/99947783.png[/img]
[img]http://img831.imageshack.us/img831/4020/99220016.png[/img]
[img]http://img202.imageshack.us/img202/3554/50519561.png[/img]
[img]http://img638.imageshack.us/img638/8412/82702747.png[/img]
